<svg width="623" height="841" viewBox="0 0 623 841" fill="none" xmlns="http://www.w3.org/2000/svg">
<path fill-rule="evenodd" clip-rule="evenodd" d="M470.051 458.39C465.271 439.847 460.875 431.985 452.383 425.54C444.441 419.512 432.847 414.449 415.929 410.751C398.309 407.669 397.809 398.51 393.391 383.789C392.102 379.363 385.715 378.186 382.959 381.376C382.57 380.956 382.165 380.572 381.745 380.225C382.121 378.114 379.048 372.065 379.151 370.046C380.222 348.973 373.331 338.391 356.129 334.457C352.388 333.601 326.979 333.097 323.332 334.106C307.386 338.515 291.689 352.514 294.091 369.379C289.085 375.921 284.187 379.914 276.464 382.022C259.279 384.204 242.095 386.145 224.906 387.806C191.257 393.084 159.708 410.897 138.146 436.876C136.157 439.274 135.582 442.529 137.338 445.087C135.963 450.977 128.223 465.264 134.313 469.302C124.298 493.257 101.256 539.559 101.213 552.787C101.031 608.358 107.033 680.69 161.862 711.443C164.057 713.601 164.371 715.99 165.322 719.201C167.732 729.318 176.487 736.548 186.069 735.958C233.271 737.007 278.99 731.248 326.193 730.969C347.01 730.846 372.044 733.953 390.127 736.024C408.21 738.094 426.464 736.263 443.818 730.969C445.281 733.273 448.24 734.615 451.241 733.953C469.231 730.379 483.779 719.291 496.45 707.172C500.322 700.127 515.444 680.055 509.433 673.068C514.882 650.031 514.599 625.278 504.916 603.342C506.289 599.321 503.787 594.902 504.916 590.749C505.733 587.744 507.826 586.501 508.879 583.526C510.362 579.338 508.75 573.721 507.081 569.448C506.397 567.319 508.34 565.026 508.879 562.853C511.44 552.604 505.577 553.507 501.35 546.655C501.413 546.634 502.512 541.743 502.507 541.767C503.154 538.275 501.533 533.801 500.118 530.886C499.162 528.915 497.115 527.682 495.08 527.908C497.129 520.952 499.72 515.163 502.507 508.46C507.435 496.646 513.673 485.333 520.749 474.639C523.647 470.26 519.755 465.187 515.066 464.888C499.887 463.924 484.874 461.738 470.051 458.39Z" fill="white"/>
<path fill-rule="evenodd" clip-rule="evenodd" d="M425.751 547.734C419.68 545.353 413.143 544.037 406.573 543.526C410.111 542.906 413.658 542.308 417.235 542.001C419.73 541.787 422.044 541.809 423.919 543.702C425.17 544.963 425.757 546.587 426.58 548.079C426.311 547.959 426.031 547.844 425.751 547.734ZM490.914 525.472C480.971 525.977 471.018 528.341 462.024 532.625C458.344 534.381 455.009 536.916 454.033 541.085C453.54 543.214 453.66 545.414 453.923 547.564C454.121 549.193 454.17 551.272 455.585 552.375C455.826 552.562 456.084 552.704 456.353 552.808C453.035 554.306 449.876 556.106 447.068 557.96C444.502 559.655 441.864 562.266 440.679 565.212C440.581 564.878 440.482 564.565 440.383 564.269C438.365 558.3 435.255 553.412 430.358 550.126C431.225 549.737 431.822 548.815 431.543 547.542C430.38 542.226 425.471 537.607 419.927 537.936C413.856 538.293 407.336 540.503 401.845 543.296C399.844 543.252 397.847 543.279 395.874 543.367C395.534 543.378 395.55 543.839 395.874 543.877C397.475 544.081 399.076 544.305 400.678 544.568C404.484 545.178 408.279 545.951 411.991 546.911C416.445 548.064 421.051 549.221 425.214 551.234C433.286 555.146 438.283 565.372 437.257 574.27C437.087 575.729 436.522 580.14 434.498 579.684C432.788 579.3 432.107 575.729 431.51 574.407C429.908 570.896 427.024 568.603 423.563 567.05C419.499 565.223 415.15 563.989 410.938 562.552C408.553 561.735 406.167 560.917 403.776 560.105C401.33 559.266 399.005 558.108 396.4 558.695C394.826 559.051 394.645 560.928 395.528 562.003C396.872 563.643 398.868 564.126 400.804 564.801C403.36 565.689 405.91 566.579 408.46 567.467C412.402 568.838 416.532 569.996 420.376 571.675L420.256 571.949C419.943 571.861 419.576 572.174 419.637 572.558C420.212 576.107 421.013 580.211 420.124 583.766C419.423 586.586 416.949 589.708 413.736 588.879C414.24 588.418 414.427 587.622 414.087 586.887C412.814 584.166 396.142 573.425 394.656 577.414C394.607 577.556 394.76 577.66 394.881 577.638C396.148 577.375 398.27 579.536 399.284 580.222C400.749 581.21 402.235 582.175 403.683 583.19C405.268 584.298 406.815 585.461 408.323 586.662C409.507 587.606 410.401 588.588 411.761 589.066C411.048 589.405 410.483 590.036 410.242 590.843C409.628 592.944 408.443 594.727 406.387 595.654C404.232 596.619 401.802 596.01 399.532 596.247C396.439 596.559 393.74 598.03 391.486 600.131C386.754 604.552 384.379 612.343 377.76 614.432C373.805 615.678 369.418 614.893 365.415 614.328C360.945 613.697 356.591 613.198 352.088 613.856C347.778 614.488 343.703 615.979 339.765 617.801C336.074 619.507 331.994 621.438 328.72 623.983C328.046 621.904 327.366 619.847 326.85 617.724C325.633 612.705 324.975 607.591 324.815 602.435C324.667 597.525 324.942 592.593 325.363 587.705C325.572 585.263 325.901 582.833 326.11 580.392C326.164 579.777 326.274 579.119 326.357 578.461C332.203 575.01 338.344 572.366 344.536 569.645C344.553 569.64 344.569 569.628 344.586 569.623C344.778 569.535 344.964 569.453 345.156 569.371C345.151 569.36 345.145 569.349 345.134 569.338C345.842 568.905 346.335 568.328 346.631 567.681C355.554 561.762 363.013 553.681 368.574 544.256C370.904 540.306 373.147 536.208 376.197 532.747C379.443 529.054 383.299 526.86 388.07 525.719C393.647 524.381 399.395 523.579 405.109 523.124C408.229 522.877 411.717 522.493 415.118 522.51C417.487 522.526 419.806 522.729 421.934 523.316C425.088 524.183 426.93 526.58 428.91 529.005C430.802 531.331 432.683 533.663 434.449 536.088C436.121 538.386 437.701 540.761 439.072 543.252C439.895 544.744 440.657 546.281 441.299 547.866C441.524 548.426 441.82 549.061 441.957 549.643C442.094 550.23 441.842 550.85 442.5 550.85C439.785 550.888 439.813 555.228 442.511 555.069C453.073 554.454 437.943 533.827 435.732 530.952C432.601 526.882 429.371 521.571 424.358 519.679C424.287 519.651 424.21 519.624 424.139 519.602C425.598 518.219 426.749 516.563 427.852 514.878C428.987 513.145 430.341 511.159 430.715 509.102C430.95 507.791 429.322 507.044 428.548 508.191C427.424 509.864 426.881 511.982 426.042 513.82C425.186 515.685 424.145 517.446 423.322 519.327C421.342 518.719 419.203 518.439 417.026 518.346C419.774 514.627 424.468 507.45 425.033 506.529C427.632 502.261 430.106 497.861 432.469 493.456C435.025 488.683 437.213 483.713 439.659 478.885C441.047 476.148 442.445 473.388 443.986 470.733C444.518 469.822 445.088 468.911 445.736 468.083C445.862 467.919 446.021 467.782 446.169 467.628C446.339 467.534 446.514 467.43 446.613 467.376C447.501 466.866 447.814 465.681 448.439 464.929C449.437 463.717 450.611 463.574 452.114 463.557C455.316 463.524 458.53 463.65 461.727 463.738C466.427 463.87 471.122 464.056 475.816 464.303C477.237 464.38 478.652 464.457 480.072 464.545C486.9 464.951 493.722 465.483 500.528 466.136C506.549 466.711 512.571 467.65 518.598 468.1C510.438 487.493 501.389 506.535 491.144 524.913C491.04 525.099 490.963 525.285 490.914 525.472ZM445.637 575.432C444.321 576.036 443.043 576.788 441.853 577.644C442.05 576.311 442.1 574.906 442.045 573.496C443.027 574.549 444.282 575.153 445.637 575.432ZM501.822 542.073C501.729 542.083 501.641 542.133 501.597 542.226C499.777 545.984 500.538 550.181 503.511 553.127C505.069 554.663 508.464 556.396 508.353 558.92C508.26 560.96 506.04 562.672 505.091 564.356C504.208 565.925 503.879 567.648 504.586 569.349C505.491 571.526 508.019 572.393 508.886 574.533C509.983 577.248 508.2 580.524 506.95 582.888C505.787 585.077 504.284 587.266 503.286 589.581C496.601 593.043 490.618 598.353 485.474 603.746C479.842 609.644 475.01 616.583 466.066 616.408C465.172 616.391 464.492 616.863 464.086 617.515C461.596 617.631 459.101 617.68 456.611 617.692C452.235 617.713 447.858 617.669 443.487 617.532C443.18 616.473 443.405 615.036 443.388 614.142C443.334 611.261 443.306 608.387 443.186 605.507C443.153 604.706 443.12 603.899 443.087 603.098C444.661 605.945 447.732 607.24 451.231 607.043C456.858 606.714 462.517 605.792 468.089 604.964C471.023 604.53 473.952 604.036 476.875 603.51C479.277 603.082 482.666 603.192 484.344 601.266C484.739 600.817 484.761 599.994 484.141 599.691C482.48 598.874 481.432 599.329 479.605 599.681C477.379 600.114 475.147 600.525 472.909 600.91C468.615 601.655 464.311 602.347 459.995 602.956C457.538 603.301 455.075 603.641 452.613 603.91C450.463 604.141 448.039 604.453 446.306 602.835C442.813 599.565 444.771 594.085 446.981 590.782C447.025 590.717 447.025 590.656 447.008 590.601C449.092 590.113 451.171 589.542 453.244 589.142C457.231 588.374 461.245 587.727 465.265 587.151C473.524 585.971 481.838 585.192 490.14 584.408C492.197 584.21 492.219 580.974 490.14 581.166C478.212 582.258 466.225 583.294 454.456 585.593C451.505 586.163 448.576 586.81 445.665 587.54C444.288 587.881 442.813 588.413 441.37 588.429C441.283 588.429 441.194 588.429 441.107 588.423C438.283 588.336 437.872 585.917 439.424 583.903C439.615 583.656 439.813 583.409 440.016 583.174C442.758 579.904 446.174 577.72 449.695 575.46C453.638 574.922 457.571 573.726 461.431 572.849C470.963 570.676 480.494 568.504 490.031 566.337C491.901 565.909 491.106 563.034 489.236 563.457C481.997 565.097 474.758 566.737 467.518 568.378L456.923 570.781C454.807 571.258 452.163 572.218 449.673 572.564C448.445 572.733 447.255 572.755 446.18 572.504C442.709 571.681 442.533 567.341 444.03 564.762C445.708 561.866 448.878 560.055 451.692 558.415C456.567 555.568 461.755 553.522 466.822 551.163C467.722 550.965 468.621 550.768 469.521 550.57C474.752 549.418 480.73 548.853 485.655 546.741C487.13 546.115 486.323 543.789 484.865 543.822C481.043 543.905 477.045 545.265 473.31 546.072C469.268 546.949 465.221 547.822 461.179 548.694C460.773 548.782 458.371 549.55 458.009 549.38C457.779 549.27 457.697 548.469 457.62 547.942C457.373 546.209 457.192 544.388 457.461 542.648C458.053 538.748 461.305 536.915 464.596 535.418C471.923 532.088 479.957 530.004 487.953 529.169C489.795 528.977 491.638 528.857 493.492 528.796C495.668 528.73 497.462 528.346 498.565 530.491C500.298 533.871 501.252 538.216 501.822 542.073ZM491.647 664.599C490.05 659.076 490.485 653.178 489.391 647.545C488.827 644.638 488.056 641.755 487.215 638.917C486.536 636.625 485.404 634.187 485.275 631.795C485.268 631.636 485.456 631.544 485.585 631.617C487.837 632.907 489.567 635.697 490.852 637.886C492.389 640.506 493.563 643.248 494.511 646.132C496.398 651.878 497.948 658.808 495.514 664.599C494.789 666.323 492.245 666.668 491.647 664.599ZM442.308 591.441C443.657 591.309 445.006 591.051 446.356 590.749C444.847 592.22 443.454 593.992 442.681 595.956C442.56 594.447 442.406 592.944 442.204 591.447C442.237 591.447 442.275 591.447 442.308 591.441ZM429.343 706.411C426.963 704.75 425.23 702.428 423.212 700.379C421.228 698.364 424.33 695.261 426.315 697.277C428.036 699.024 429.531 701.207 431.556 702.621C432.532 703.301 432.983 704.53 432.344 705.624C431.779 706.588 430.315 707.089 429.343 706.411ZM416.075 642.583C420.418 640.705 424.689 638.659 429.234 637.306C431.951 636.497 433.101 640.734 430.401 641.537C426.215 642.784 422.289 644.643 418.29 646.372C415.722 647.483 413.491 643.701 416.075 642.583ZM370.211 641.269C369.149 638.647 373.395 637.518 374.442 640.102C375.646 643.077 377.027 645.975 378.232 648.95C379.293 651.571 375.048 652.701 374.002 650.116C372.797 647.142 371.415 644.244 370.211 641.269ZM324.942 693.615C324.235 694.559 323.055 695.07 321.941 694.403C321.007 693.843 320.438 692.356 321.154 691.401C323.245 688.613 325.363 685.858 327.814 683.372C329.801 681.357 332.902 684.463 330.917 686.476C328.728 688.695 326.81 691.125 324.942 693.615ZM318.469 399.901C320.483 401.277 322.247 402.948 323.968 404.668C325.968 406.668 322.865 409.771 320.865 407.771C319.415 406.322 317.953 404.85 316.255 403.691C315.274 403.02 314.833 401.773 315.468 400.688C316.037 399.716 317.49 399.233 318.469 399.901ZM384.329 470.526C383.191 472.806 382.166 475.042 382.101 477.634C382.032 480.458 377.644 480.459 377.714 477.634C377.798 474.242 379.048 471.3 380.541 468.311C381.803 465.78 385.586 468.006 384.329 470.526ZM408.493 413.805C410.852 412.232 413.046 416.035 410.708 417.594C408.813 418.858 406.917 420.122 405.022 421.386C402.664 422.959 400.47 419.156 402.807 417.597C404.703 416.333 406.598 415.069 408.493 413.805ZM303.683 512.976C303.28 515.765 299.053 514.572 299.452 511.81C300.069 507.541 300.822 503.328 301.98 499.17C302.738 496.449 306.969 497.612 306.21 500.337C305.052 504.495 304.299 508.708 303.683 512.976ZM288.301 563.25C285.477 563.19 285.476 558.801 288.301 558.861C290.856 558.915 293.368 559.588 295.834 560.203C298.576 560.889 297.406 565.12 294.667 564.435C292.583 563.915 290.461 563.296 288.301 563.25ZM282.622 664.521C281.652 664.993 280.657 665.418 279.676 665.867C277.712 666.765 275.749 667.664 273.787 668.566C269.699 670.443 265.614 672.326 261.532 674.216C253.36 678 245.126 681.65 236.935 685.393C228.582 689.21 220.251 693.078 211.93 696.965C208.01 698.796 204.061 700.559 200.119 702.342C196.748 703.867 192.582 706.531 188.882 706.782C188.691 706.795 188.628 706.554 188.736 706.431C190.134 704.84 192.364 703.915 194.201 702.882C196.078 701.825 197.99 700.832 199.893 699.824C203.86 697.721 207.832 695.635 211.838 693.607C219.85 689.551 227.878 685.524 235.907 681.502C244.096 677.4 252.275 673.271 260.535 669.315C264.425 667.452 268.318 665.595 272.213 663.744C274.324 662.741 276.435 661.74 278.546 660.74C279.458 660.308 280.361 659.843 281.293 659.456C282.532 658.943 283.474 659.048 284.752 658.732C286.836 658.218 287.738 660.868 286.138 662.023C284.821 662.973 284.128 663.786 282.622 664.521ZM253.333 709.523C252.883 708.428 253.825 707.098 254.865 706.823C256.111 706.495 257.109 707.252 257.564 708.356C258.767 711.283 260.48 713.968 262.685 716.236C264.656 718.263 261.555 721.367 259.583 719.34C256.819 716.497 254.834 713.174 253.333 709.523ZM231.785 639.077C229.785 637.077 232.888 633.974 234.888 635.974L240.573 641.661C242.574 643.662 239.47 646.765 237.471 644.765L231.785 639.077ZM173.45 629.804C169.362 631.003 164.594 632.106 161.807 635.594C161.671 635.765 161.443 635.546 161.524 635.376C165.092 627.977 175.325 625.381 182.409 622.789C187.42 620.955 192.561 619.434 197.746 618.076C197.228 612.159 198.657 605.818 199.154 599.931C199.684 593.645 200.116 587.343 200.337 581.037C200.564 574.605 200.619 568.129 200.407 561.695C200.196 555.285 199.364 548.953 199 542.564C198.965 541.946 199.825 541.917 200.01 542.427C202.164 548.356 203.083 554.923 203.784 561.174C204.506 567.614 204.745 574.036 204.653 580.513C204.558 587.173 204.171 593.817 203.639 600.456C203.388 603.602 203.095 606.745 202.819 609.889C202.609 612.289 202.511 614.669 202.022 616.993C205.149 616.225 208.283 615.499 211.408 614.793C221.37 612.544 231.374 610.457 241.295 608.025C246.165 606.832 250.965 605.402 255.813 604.133C260.378 602.938 265.197 601.488 269.883 600.955C271.556 600.764 271.769 603.053 270.662 603.83C266.852 606.505 261.793 608.368 257.393 609.866C252.977 611.368 248.387 612.45 243.861 613.563C234.422 615.885 224.894 617.784 215.38 619.761C205.88 621.737 196.361 623.698 186.967 626.135C182.443 627.309 177.935 628.487 173.45 629.804ZM151.049 512.392C148.606 513.826 146.401 510.031 148.835 508.602C152.02 506.732 155.414 505.327 158.835 503.957C161.461 502.906 162.591 507.152 160.002 508.189C156.927 509.42 153.911 510.712 151.049 512.392ZM142.204 675.443C139.755 676.864 137.548 673.07 139.99 671.654C143.42 669.665 147.176 668.338 150.73 666.598C153.259 665.359 155.48 669.146 152.944 670.388C149.391 672.128 145.634 673.454 142.204 675.443ZM138.226 582.887C140.594 585.138 143.755 586.197 146.735 587.379C149.333 588.409 148.193 592.652 145.568 591.611C141.855 590.138 138.073 588.794 135.124 585.99C133.071 584.041 136.179 580.943 138.226 582.887ZM164.424 457.19C167.028 458.212 165.887 462.454 163.258 461.422C160.341 460.278 157.329 459.407 154.413 458.263C151.81 457.241 152.95 452.999 155.579 454.03C158.496 455.174 161.508 456.046 164.424 457.19ZM210.641 407.263C213.407 406.797 214.585 411.027 211.807 411.496C208.361 412.078 204.968 412.759 201.699 414.024C199.059 415.045 197.927 410.8 200.532 409.792C203.802 408.527 207.195 407.845 210.641 407.263ZM225.912 528.823C223.375 527.576 225.601 523.792 228.126 525.034C230.786 526.342 233.543 527.354 236.447 527.972C239.211 528.561 238.034 532.792 235.28 532.205C232.013 531.508 228.904 530.295 225.912 528.823ZM240.334 460.35C243.066 459.602 244.221 463.836 241.501 464.582C236.716 465.894 231.79 466.575 226.97 467.742C224.223 468.407 223.06 464.174 225.803 463.51C230.623 462.343 235.55 461.662 240.334 460.35ZM301.519 438.862C304.296 439.376 303.113 443.606 300.353 443.095C297.415 442.551 294.438 442.542 291.459 442.541C288.632 442.54 288.637 438.151 291.459 438.152C294.843 438.154 298.183 438.245 301.519 438.862ZM501.065 461.791C493.898 461.105 486.719 460.557 479.529 460.145C479.194 460.128 478.865 460.107 478.53 460.09C478.493 460.014 478.443 459.942 478.393 459.865C476.047 456.42 474.319 452.975 472.822 449.08C471.391 445.371 470.003 441.548 467.798 438.201C465.284 434.389 461.889 431.405 458.169 428.82C455.912 430.338 453.818 432.115 451.902 433.999C449.885 435.981 446.782 432.878 448.799 430.896C450.502 429.221 452.319 427.675 454.241 426.278C452.022 424.929 449.759 423.662 447.551 422.401C439.275 417.678 430.802 413.311 422.154 409.318C418.134 407.457 414.065 405.806 409.968 404.133C407.763 403.234 405.586 402.076 403.382 401.034C403.541 399.475 403.074 397.731 401.879 396.705C400.996 395.953 400.31 395.674 399.257 395.142C399.022 395.059 398.879 395.01 398.813 394.982C398.863 394.993 399.005 395.037 399.24 395.114C399.8 395.372 399.844 395.295 399.373 394.889C399.345 394.001 397.595 392.125 397.195 391.209C395.802 388.065 395.369 384.74 393.313 381.876C390.477 377.932 385.717 376.44 381.28 377.778C380.82 373.033 380.699 368.08 378.911 363.844C378.862 363.729 378.703 363.679 378.632 363.806C376.767 366.982 376.608 370.52 376.465 374.185C376.328 377.625 376.459 381.141 376.91 384.559C376.624 384.778 376.334 384.987 376.032 385.19C374.617 386.122 373.093 386.841 371.491 387.374C368.442 388.383 365.245 388.822 362.047 388.975C353.794 389.37 345.288 388.536 337.171 387.121C328.962 385.689 316.375 383.539 309.071 379.43C304.249 376.72 299.802 373.411 295.294 370.208C296.929 364.941 297.345 359.28 295.7 354.83C295.503 354.298 294.669 354.2 294.51 354.83C293.479 359.077 293.177 363.345 291.806 367.541C291.784 367.602 291.763 367.668 291.741 367.728C291.313 367.438 290.885 367.152 290.457 366.867C289.47 366.214 288.127 366.703 287.534 367.635C278.063 382.562 263.064 383.418 247.313 386.085C230.076 389.003 212.752 392.152 196.179 397.862C180.33 403.327 165.183 411.282 153.183 423.164C150.467 425.855 147.927 428.721 145.529 431.714C147.849 432.006 150.15 432.461 152.421 433.175C155.109 434.02 153.954 438.256 151.254 437.407C148.335 436.49 145.384 436.036 142.403 435.81C134.25 446.967 127.893 459.619 122.395 472.071C111.851 495.947 104.988 521.373 101.829 547.26C103.563 546.22 105.329 545.23 107.138 544.309C109.652 543.03 111.869 546.818 109.352 548.099C106.558 549.521 103.843 551.088 101.213 552.787C100.064 564.119 99.6186 575.523 99.8884 586.909C100.53 614.054 104.194 641.994 112.48 667.893C116.544 680.604 121.929 693.211 129.953 703.953C133.583 708.819 137.707 713.207 142.566 716.866C144.919 718.644 147.409 720.23 150.036 721.568C153.419 723.301 157.829 723.872 160.746 726.324C161.706 727.131 162.446 728.195 163.006 729.396C162.682 731.679 162.644 733.966 163.269 736.248C163.466 736.962 164.004 737.543 164.667 737.823C164.678 738.02 164.678 738.212 164.678 738.399C164.678 738.487 164.81 738.509 164.826 738.421C164.854 738.251 164.881 738.081 164.909 737.906C165.122 737.976 165.347 738.01 165.578 738.01C173.908 738.041 182.249 737.838 190.59 737.555C189.945 735.579 189.247 733.619 188.576 731.642C187.665 728.958 191.904 727.816 192.806 730.476C193.591 732.787 194.412 735.077 195.142 737.396C204.079 737.064 213.014 736.664 221.933 736.37C240.903 735.738 259.867 735.53 278.841 735.13C308.308 734.505 337.99 733.226 367.502 734.477C368.523 732.31 369.665 730.193 370.748 728.056C372.026 725.533 375.81 727.757 374.537 730.271C373.784 731.756 373.004 733.222 372.263 734.705C378.24 735.015 384.211 735.425 390.17 735.986C400.337 736.94 410.407 738.635 420.563 739.689C430.89 740.763 440.992 740.572 451.236 738.866C453.079 738.559 454.165 737.444 454.615 736.062C454.63 736.056 454.642 736.046 454.652 736.029C455.179 735.415 455.673 734.905 456.182 734.46C456.792 734.066 457.45 733.73 458.223 733.434C459.665 732.885 461.168 732.551 462.693 732.326C464.371 732.074 466.071 732.052 467.749 731.844C469.163 731.663 470.546 731.393 471.927 731.065C474.412 730.472 476.771 729.699 479.118 728.672C481.163 727.779 483.011 726.495 484.755 725.095C488.364 722.457 491.489 719.089 494.221 715.588C495.812 713.542 497.309 711.419 498.669 709.209C501.038 705.379 503.056 701.401 505.096 697.391C505.837 696.203 506.512 694.986 507.13 693.744C503.143 692.569 499.117 691.611 494.891 691.543C492.065 691.497 492.066 687.108 494.891 687.154C499.738 687.231 504.323 688.364 508.879 689.714C509.101 689.124 509.314 688.53 509.511 687.928C510.054 686.672 510.504 685.382 510.876 684.077C511.095 683.484 511.315 682.892 511.535 682.299C512.028 680.248 512.522 678.19 513.021 676.133C514.013 672.841 514.797 669.501 515.374 666.116C515.856 663.888 516.229 661.645 516.481 659.373C517.249 653.871 517.874 648.38 517.918 642.817C517.852 639.388 517.633 635.965 517.26 632.558C517.101 630.243 516.832 627.939 516.47 625.651C515.999 622.25 515.533 618.882 514.748 615.524C514.162 613.253 513.575 610.982 512.988 608.71C511.524 603.977 509.796 599.335 507.805 594.798C507.696 594.513 507.141 593.887 506.807 593.882C506.555 593.876 506.203 594.107 506.319 594.415C506.33 594.441 506.341 594.474 506.352 594.502C506.237 594.244 506.127 593.981 506.012 593.723C505.913 593.481 505.529 592.999 505.233 593.005C505.217 593.005 505.2 593.005 505.178 593.01C505.255 592.955 505.327 592.883 505.398 592.802C507.367 590.47 508.644 587.403 510.054 584.704C511.222 582.477 512.324 580.128 512.642 577.61C512.922 575.4 512.544 573.222 511.156 571.433C509.577 569.398 506.604 568.443 508.255 565.503C510.131 562.156 512.889 559.254 510.142 555.453C508.743 553.516 506.528 552.452 504.882 550.768C502.99 548.82 502.09 546.214 502.14 543.554C502.255 543.619 502.409 543.587 502.464 543.422C504.054 538.616 502.903 533.339 501.274 528.659C500.385 526.12 498.504 525.422 496.316 525.297C505.792 506.782 514.66 487.97 522.563 468.725C522.826 468.094 523.084 467.464 523.341 466.832C523.726 465.889 522.914 464.633 521.976 464.424C515.143 462.926 508.025 462.449 501.065 461.791Z" fill="black"/>
<path fill-rule="evenodd" clip-rule="evenodd" d="M440.052 177.661C439.867 171.101 430.329 168.377 427.573 174.874C427.402 175.048 427.216 175.215 427.041 175.365C427.904 174.625 426.1 175.849 425.807 176.001C425.556 176.13 425.299 176.247 425.043 176.368C423.271 159.749 417.253 141.832 401.705 133.491C380.018 122.971 354.959 120.917 331.167 121.962C319.115 122.678 305.197 124.605 294.489 118.506C291.153 116.606 288.478 113.614 284.708 112.44C272.806 109.219 267.407 121.445 269.028 131.499C263.951 131.539 258.915 134.351 256.724 138.98C255.438 141.719 255.46 144.676 254.351 147.425C250.947 154.398 246.076 159.41 248.83 167.864C243.987 173.377 246.748 181.723 250.656 187.001C252.586 189.746 254.885 192.381 256.298 195.454C257.67 198.396 255.599 201.885 254.446 204.674C245.924 224.89 246.411 247.152 250.997 268.238C241.794 272.232 239.033 284.719 245.033 292.581C247.098 295.36 249.617 296.391 252.474 298.101C256.089 300.091 253.136 308.064 254.294 311.914C255.867 321.313 264.422 327.101 272.881 320.997C278.249 320.185 282.579 335.808 286.477 339.73C288.879 342.89 291.545 345.727 294.444 348.345C303.081 370.577 347.342 381.851 369.225 380.564C392.14 378.164 407.6 358.696 420.472 341.419C427.082 332.213 431.381 321.909 432.945 310.671C434.515 299.377 433.828 288.062 432.766 276.753C430.536 252.727 427.017 218.113 424.745 193.827C432.956 193.15 440.301 186.158 440.052 177.661V177.661Z" fill="white"/>
<path fill-rule="evenodd" clip-rule="evenodd" d="M261.056 163.216C261.048 163.25 261.06 163.275 261.067 163.312C261.069 163.301 261.071 163.296 261.073 163.283C261.067 163.256 261.062 163.237 261.056 163.216" fill="#4F66AF"/>
<path fill-rule="evenodd" clip-rule="evenodd" d="M261.053 163.565C261.023 163.533 260.98 163.51 260.938 163.478C260.937 163.479 260.936 163.48 260.935 163.481C260.976 163.507 261.014 163.538 261.053 163.565" fill="#4F66AF"/>
<path fill-rule="evenodd" clip-rule="evenodd" d="M438.745 180.765C441.442 178.524 445.691 180.588 444.777 184.278C443.783 188.297 439.477 191.043 435.922 192.695C432.263 194.394 428.699 194.721 424.707 194.536L424.658 194.525V194.525C425.766 198.97 426.395 203.591 427.242 208.063C428.318 213.737 429.377 219.413 430.419 225.092C431.428 230.581 432.703 236.078 433.478 241.595C434.259 247.163 435.01 252.736 435.777 258.306C437.059 267.61 438.093 276.956 439.183 286.287L439.703 290.703C440.795 300.051 441.675 309.411 439.605 318.713C437.665 327.431 433.295 335.564 428.227 342.841C423.263 349.968 417.718 356.82 411.631 363.018C399.89 374.973 385.412 384.548 368.435 386.323C361.125 387.088 353.318 386.237 346.446 383.579L345.99 383.401C339.033 380.653 330.514 375.949 328.704 368.229C327.592 363.494 332.47 359.797 336.747 362.044C338.729 363.085 340.219 364.275 341.846 365.767L342.134 366.033C343.464 367.268 343.975 367.648 345.509 368.614C348.656 370.594 351.014 371.531 354.587 372.431C361.176 374.089 368.287 373.826 374.975 371.866C389.176 367.703 400.192 356.841 409.63 345.949C414.754 340.035 419.618 333.831 423.369 326.938C427.305 319.705 429.122 312.112 429.013 303.883C428.89 294.598 427.607 285.277 426.765 276.036C425.908 266.615 425.115 257.197 424.416 247.763C423.761 238.916 423.698 230.029 423.469 221.154L423.424 219.49C423.29 214.779 423.197 210.066 423.09 205.353C422.984 200.654 422.612 195.896 423.096 191.217C423.13 190.876 423.589 190.79 423.701 191.134C423.986 192.011 424.236 192.902 424.472 193.797C424.508 193.769 424.549 193.745 424.598 193.728C427.726 192.652 430.607 190.506 432.954 188.191C435.194 185.982 436.364 182.745 438.745 180.765ZM267.598 114.935C269.563 106.862 278.406 105.059 284.944 108.947C288.09 110.816 290.608 113.513 293.546 115.655C296.467 117.786 299.695 119.497 303.101 120.706C309.868 123.106 317.006 123.979 324.158 124.011C341.565 124.087 358.615 119.193 376.048 119.739C389.537 120.162 403.854 124.149 413.638 133.903C418.909 139.158 422.305 145.913 424.127 153.085C424.978 156.437 425.613 159.87 426.114 163.295L426.236 164.151C426.516 166.153 426.966 168.272 427.008 170.296C427.045 172.113 426.586 174.014 426.337 175.812C425.812 179.603 419.942 179.171 419.099 175.812C417.178 168.164 417.982 160.271 415.635 152.65C413.554 145.891 409.52 139.981 403.676 135.94C379.02 118.889 347.401 133.168 320.234 131.841C313.595 131.517 306.858 130.491 300.595 128.203C297.365 127.024 294.185 125.586 291.257 123.776C288.574 122.12 286.25 120.038 283.767 118.123L282.671 117.29C280.969 116.009 278.071 114.005 276.353 115.7C275.606 116.438 275.56 118.106 275.574 119.38L275.582 119.956C275.66 125.364 276.762 130.762 274.739 135.987C273.816 138.37 271.251 139.873 268.812 138.523L268.686 138.451C263.526 135.38 256.746 141.55 260.71 146.657L260.833 146.811C263.064 149.523 261.875 154.297 257.883 154.285L257.739 154.283C250.627 154.061 247.472 162.952 253.602 166.836L253.791 166.953C258.767 169.932 254.402 177.095 249.301 174.636C249.733 174.844 248.982 174.841 248.552 175.418C248.139 175.973 248.108 176.452 248.207 177.152C248.504 179.273 250.369 181.06 251.879 182.402C255.31 185.451 259.563 187.556 263.946 188.837C281.5 193.971 299.51 187.691 316.614 183.899C334.446 179.945 354.586 178.352 370.137 189.572C370.322 189.705 370.16 190.001 369.955 189.883C358.795 183.399 345.126 183.975 332.927 186.633C316.93 190.119 301.072 196.607 284.688 198.316C289.288 206.439 291.213 216.032 289.984 225.323C289.139 231.718 286.594 237.266 283.589 242.887L283.016 243.959C280.336 249.005 278.261 253.772 278.227 259.617C278.195 265.425 269.564 266.65 268.1 260.989C264.779 248.132 276.88 238.006 281.817 227.404C286.037 218.341 286.167 207.775 282.752 198.495C278.899 198.805 275.016 198.838 271.094 198.488C267.725 198.186 264.259 197.579 260.881 196.618L259.529 202.301C257.739 209.872 256.08 217.437 255.577 225.3C255.207 231.078 255.226 236.884 255.79 242.647C256.277 247.625 257.304 252.426 258.35 257.286C259.247 258.47 259.706 260.282 259.454 261.726C265.278 263.403 269.859 268 271.532 274.089C271.634 274.46 271.116 274.669 270.921 274.347C266.95 267.756 256.725 265.331 250.256 269.685C244.079 273.842 241.642 282.236 245.139 288.881C246.978 292.374 249.705 294.829 253.221 296.52L253.928 296.852C255.771 297.724 257.462 298.675 258.647 300.427C260.185 302.699 260.236 305.101 260.091 307.698L260.028 308.75C259.931 310.491 259.909 312.282 260.428 313.956L260.545 314.328C260.682 314.746 260.826 315.114 261.075 315.513C261.15 315.632 261.85 316.319 262.078 316.567L262.365 316.654V316.654L262.686 316.667V316.667C263.043 316.673 263.512 316.518 263.358 316.625L263.4 316.601C263.535 316.517 263.659 316.428 263.764 316.349L263.963 316.193C264.429 315.52 265.012 314.964 265.728 314.54L266.412 314.235V314.235C268.188 312.359 271.232 313.345 272.505 315.214C273.422 316.558 273.915 317.924 273.955 319.272C274.098 319.042 274.417 318.917 274.619 319.174L275.826 320.713C280.446 326.618 284.986 332.559 290.235 337.941C293.127 340.907 296.237 343.694 299.489 346.261C302.265 348.452 307.531 350.561 307.612 354.553C307.637 355.849 306.717 356.767 305.592 357.207C301.929 358.638 297.403 353.77 294.758 351.401L294.542 351.209C291.304 348.373 288.349 345.259 285.622 341.929C280.326 335.46 275.898 328.015 273.946 319.825C273.854 321.254 273.241 322.655 272.048 323.977C270.459 325.735 268.285 326.969 265.962 327.477C260.7 328.627 255.563 326.733 252.432 322.347C249.785 318.639 249.006 313.742 249.348 309.263L249.39 308.725C249.438 308.007 249.499 306.688 249.685 306.127L248.028 305.217V305.217C245.997 304.136 244.114 302.718 242.424 301.16C235.633 294.898 232.226 284.719 235.33 275.813C237.272 270.241 241.353 265.393 246.578 262.874C245.705 260.855 245.413 258.457 245.083 256.335L245.028 255.984C244.469 252.504 244.001 248.98 243.823 245.458C243.49 238.88 243.895 232.241 244.928 225.74C246.606 215.18 250.081 203.981 256.449 195.122C251.59 193.192 247.119 190.398 243.667 186.518C240.06 182.464 237.76 176.66 240.55 171.511C241.26 170.199 242.187 169.096 243.251 168.22C241.405 164.733 240.808 160.612 241.947 156.673C243.308 151.964 247.004 148.291 251.469 146.576C250.384 142.114 251.271 137.315 254.584 133.597C257.87 129.908 262.973 128.564 267.696 129.408C267.952 124.662 266.458 119.615 267.598 114.935ZM254.351 281.544C258.682 279.424 263.814 279.761 268.139 281.77L268.432 281.909C273.155 284.2 279.409 289.552 277.908 295.244C277.03 298.573 273.332 299.71 270.465 298.273C268.07 297.072 267.524 294.925 266.322 292.769C265.473 291.244 264.423 290.052 263.189 288.826C260.589 286.242 257.669 284.323 254.351 282.788C253.873 282.566 253.89 281.771 254.351 281.544ZM363.461 166.487C363.055 166.302 363.349 165.666 363.758 165.782C374.639 168.89 384.784 175.867 390.846 185.552C391.216 186.143 391.272 187.115 390.846 187.7L390.65 187.966C390.372 188.329 390.098 188.597 389.575 188.678C388.592 188.83 387.739 188.574 387.173 187.7C381.2 178.469 373.549 171.103 363.461 166.487ZM436.304 168.315C437.226 166.753 439.67 167.067 440.157 168.818L440.227 168.971C440.49 169.568 440.37 169.69 439.88 169.352C441.093 170.352 441.642 171.841 441.272 173.442C439.269 182.087 429.479 188.261 420.944 187.412C420.2 187.337 420.098 186.422 420.773 186.149C424.057 184.819 426.971 182.659 429.314 180.009C431.592 177.433 432.55 174.485 433.775 171.374C434.235 170.206 434.95 169.365 435.957 168.906C436.091 168.721 436.207 168.525 436.304 168.315ZM387.771 162.759L387.83 162.763C392.215 163.329 396.008 165.494 399.088 168.666C402.054 171.721 405.796 176.761 405.476 181.244C405.263 184.215 401.04 185.914 399.463 182.873C398.523 181.058 398.31 179.069 397.651 177.15C397.047 175.391 396.212 173.721 395.213 172.155C393.156 168.928 390.327 166.195 387.43 163.728C387.091 163.439 387.327 162.76 387.771 162.759V162.759ZM275.299 161.442C274.327 160.516 275.338 158.937 276.575 159.25C283.097 160.901 289.556 162.91 296.337 163.11C299.724 163.209 303.092 162.942 306.447 162.504L308.146 162.278C310.762 161.937 313.424 161.668 316.01 162.206C317.734 162.564 318.071 164.786 316.997 165.945C311.923 171.42 302.137 170.896 295.409 169.974C288.102 168.971 280.73 166.617 275.299 161.442ZM393.08 144.378C392.633 143.759 393.385 142.781 394.095 143.056C400.577 145.562 407.37 152.086 409.156 158.913C409.628 160.716 407.355 162.077 406.02 160.739C403.532 158.244 401.776 155.298 399.673 152.494C397.578 149.699 395.126 147.217 393.08 144.378ZM286.877 147.427C286.357 146.907 286.881 145.872 287.628 146.137C291.848 147.632 296.099 148.925 300.533 149.604C305.074 150.299 309.657 149.771 314.222 150.052C316.068 150.166 317.326 153.039 315.273 153.934C306.152 157.906 293.763 154.304 286.877 147.427ZM298.53 138.517C297.805 137.98 298.217 136.508 299.204 136.918C303.223 138.592 307.287 139.004 311.6 138.831C313.193 138.767 313.528 141.272 311.975 141.61C307.208 142.647 302.426 141.398 298.53 138.517Z" fill="black"/>
<path fill-rule="evenodd" clip-rule="evenodd" d="M382.763 322.22C383.604 320.756 385.541 319.401 387.314 319.609C395.254 320.54 395.241 330.17 392.175 335.792C389.456 340.778 383.83 343.704 378.199 343.276C372.283 342.827 367.243 339.348 365.024 333.812C363.557 330.15 362.879 323.39 366.782 320.929C366.854 320.883 366.974 320.895 367.031 320.961C368.903 323.138 368.976 326.408 370.614 328.832C372.138 331.087 374.505 332.949 377.277 333.236C379.348 333.451 381.443 332.704 382.253 330.844C382.691 329.838 382.642 329.292 382.477 328.6L382.327 327.998C381.808 325.891 381.575 324.286 382.763 322.22ZM384.886 279.986C389.027 282.504 395.337 288.376 390.882 294.618C385.638 300.123 378.088 293.812 374.367 290.957C370.917 288.745 367.041 294.434 370.242 297.017C397.127 316.929 408.038 280.644 386.98 277.025C384.662 276.626 383.801 279.207 384.886 279.986ZM341.154 262.719C343.695 258.904 349.498 259.466 350.898 263.993C351.656 266.445 350.609 268.649 350.663 271.098C350.709 273.167 350.573 275.472 349.939 277.476C348.494 282.044 344.386 285.271 339.526 285.137C334.683 285.004 330.417 281.937 328.388 277.618C326.352 273.283 326.783 268.796 328.27 264.387C328.341 264.176 328.618 264.073 328.786 264.251C330.542 266.119 331.828 268.09 333.159 270.182L334.523 272.325C335.565 273.939 337.08 276.001 339.026 275.871L339.318 275.843C339.858 275.796 339.776 275.903 340.193 275.166C340.386 274.825 340.351 274.191 340.444 273.788L340.476 273.652V273.652L340.459 273.579C340.417 273.384 340.377 273.016 340.343 272.379L340.336 272.238C340.195 269.255 339.353 265.422 341.154 262.719ZM405.588 265.259C405.132 260.38 411.989 259.296 414.269 262.906C415.458 264.789 415.804 267.154 416.067 269.395L416.19 270.458C416.46 272.76 416.567 275.154 415.568 277.3C413.996 280.681 410.575 282.469 406.885 282.186C403.362 281.915 400.147 279.871 398.452 276.769C396.942 274.001 395.439 268.596 397.274 265.709C397.385 265.534 397.607 265.511 397.759 265.646C399.493 267.186 399.775 269.995 400.806 272.001C401.87 274.07 403.482 276.087 405.927 276.401C408.265 276.702 409.159 275.424 408.562 273.194C407.792 270.315 405.877 268.357 405.588 265.259ZM343.006 233.711L344.127 233.281C347.97 231.829 353.245 230.151 356.369 233.276C358.296 235.204 358.663 238.043 357.287 240.395C355.621 243.243 352.631 243.314 349.744 243.733C346.461 244.211 343.122 245.118 340.065 246.412C336.621 247.869 333.426 249.686 330.295 251.715C327.319 253.644 324.354 256.795 320.792 257.39C320.646 257.414 320.481 257.351 320.444 257.192C319.635 253.708 321.883 250.28 323.889 247.562C326.316 244.271 329.257 241.571 332.544 239.149C335.717 236.812 339.342 235.123 343.006 233.711ZM412.801 246.096L413.144 246.036C415.474 245.648 417.585 245.738 419.341 247.584C420.681 248.992 421.198 250.817 420.559 252.679C419.97 254.397 418.651 256.142 416.738 256.502C410.278 257.717 403.123 257.517 396.631 256.596C393.66 256.175 390.663 255.659 387.77 254.846L386.439 254.46C384.024 253.77 381.259 253.049 379.504 251.272C378.874 250.633 379.237 249.719 379.992 249.424C383.053 248.224 387.249 248.863 390.513 248.769C394.31 248.66 398.114 248.375 401.893 247.983C405.586 247.599 409.159 246.765 412.801 246.096Z" fill="black"/>
<path fill-rule="evenodd" clip-rule="evenodd" d="M385.489 301.36C379.39 298.612 368.438 301.01 364.462 301.963C355.219 304.181 345.92 308.973 343.046 316.48C339.808 324.941 346.269 327.605 347.219 327.17C353.618 327.621 361.239 323.597 367.944 322.558C373.388 321.708 379.13 320.966 384.23 318.072C387.954 320.121 396.365 321.229 403.152 323.021C408.933 324.546 411.438 327.853 416.797 327.15C423.22 326.307 420.591 312.794 413.432 307.319C405.598 301.328 392.347 298.898 385.489 301.36ZM397.565 359.141C392.229 360.442 391.871 348.744 391.273 344.61C390.806 341.381 388.172 333.054 381.495 333.414C374.817 333.773 372.307 340.75 372.646 345.089C372.866 347.903 375.458 362.156 367.184 363.959C361.909 363.941 355.806 363.585 350.259 362.562C343.731 361.083 335.242 355.904 333 366.102C332.193 369.773 360.95 380.677 373.711 381.663C386.653 384.287 401.795 380.253 411.009 370.349C413.105 368.096 419.009 358.744 419.43 356.453C420.314 351.639 418.267 348.541 412.312 350.238C408.106 352.485 400.997 358.304 397.565 359.141Z" fill="black"/>
<path fill-rule="evenodd" clip-rule="evenodd" d="M433.968 283.327C427.309 290.21 416.194 292.184 407.335 288.494C384.589 278.987 395.723 249.335 413.265 241.372C415.456 240.826 418.383 239.53 421.052 239.235C421.294 239.117 421.819 239.46 422.456 239.136C441.799 241.296 446.204 271.333 433.968 283.327M360.602 285.089C353.134 294.997 339.25 298.054 327.907 293.448C305.497 284.62 313.446 258.326 328.778 248.018C361.165 235.844 374.54 266.82 360.602 285.089M312.023 263.135C312.002 263.125 311.981 263.12 311.96 263.11C312.078 263.058 312.197 263.006 312.314 262.953C312.276 263.053 312.234 263.153 312.197 263.253C312.139 263.213 312.088 263.166 312.023 263.135M449.384 252.425C447.556 252.429 444.915 252.729 443.401 253.998C439.669 241.406 425.891 229.752 413.91 238.25C404.474 241.286 397.473 248.017 393.493 256.967C386.318 252.698 375.036 254.521 368.815 260.167C364.74 246.698 354.711 241.982 342.775 241.286C329.747 239.151 316.762 251.808 312.71 261.961C309.341 261.578 304.307 260.505 301.138 262.585C280.568 257.189 244.606 254.214 240.424 257.212C237.444 258.356 235.809 265.392 239.971 265.772C243.599 265.257 239.548 260.616 243.204 260.11C262.686 258.902 281.598 262.826 300.873 264.473C302.594 266.789 308.154 267.563 311.121 266.633C306.449 283.857 316.534 295.575 331.646 299.085C355.045 304.462 375.403 283.523 369.284 261.743C376.372 258.216 384.526 258.367 392.247 260.225C379.344 307.728 455.824 305.597 443.879 255.626C451.829 259.581 453.555 253.223 449.384 252.425" fill="black"/>
</svg>
